<svg width="56" height="56" viewBox="0 0 56 56" fill="none" xmlns="http://www.w3.org/2000/svg">
<path opacity="0.3" d="M28 56C43.464 56 56 43.464 56 28C56 12.536 43.464 0 28 0C12.536 0 0 12.536 0 28C0 43.464 12.536 56 28 56Z" fill="url(#paint0_linear_147_8415)"/>
<path d="M28 54C42.3594 54 54 42.3594 54 28C54 13.6406 42.3594 2 28 2C13.6406 2 2 13.6406 2 28C2 42.3594 13.6406 54 28 54Z" fill="url(#paint1_linear_147_8415)"/>
<path d="M23.1829 19.9842C23.6305 18.8497 25.2362 18.8497 25.6838 19.9842L25.7612 20.1809C26.8541 22.9521 29.0479 25.1458 31.8191 26.2388L32.0158 26.3162C33.1503 26.7638 33.1503 28.3695 32.0158 28.8171L31.8191 28.8945C29.0479 29.9874 26.8541 32.1812 25.7612 34.9524L25.6838 35.1491C25.2362 36.2836 23.6305 36.2836 23.1829 35.1491L23.1055 34.9524C22.0125 32.1812 19.8188 29.9874 17.0476 28.8945L16.8509 28.8171C15.7164 28.3695 15.7164 26.7638 16.8509 26.3162L17.0476 26.2388C19.8188 25.1458 22.0125 22.9521 23.1055 20.1809L23.1829 19.9842Z" fill="white"/>
<path d="M33.7177 13.4636C33.9619 12.8448 34.8377 12.8448 35.0819 13.4636L35.1241 13.5709C35.7202 15.0825 36.9168 16.2791 38.4284 16.8752L38.5357 16.9174C39.1545 17.1616 39.1545 18.0374 38.5357 18.2816L38.4284 18.3238C36.9168 18.92 35.7202 20.1165 35.1241 21.6281L35.0819 21.7354C34.8377 22.3542 33.9619 22.3542 33.7177 21.7354L33.6755 21.6281C33.0794 20.1165 31.8828 18.92 30.3712 18.3238L30.2639 18.2816C29.6451 18.0374 29.6451 17.1616 30.2639 16.9174L30.3712 16.8752C31.8828 16.2791 33.0794 15.0825 33.6755 13.5709L33.7177 13.4636Z" fill="white"/>
<path d="M33.7177 33.3972C33.9619 32.7784 34.8377 32.7784 35.0819 33.3972L35.1241 33.5045C35.7202 35.0161 36.9168 36.2127 38.4284 36.8088L38.5357 36.851C39.1545 37.0952 39.1545 37.971 38.5357 38.2152L38.4284 38.2574C36.9168 38.8535 35.7202 40.0501 35.1241 41.5617L35.0819 41.669C34.8377 42.2878 33.9619 42.2878 33.7177 41.669L33.6755 41.5617C33.0794 40.0501 31.8828 38.8535 30.3712 38.2574L30.2639 38.2152C29.6451 37.971 29.6451 37.0952 30.2639 36.851L30.3712 36.8088C31.8828 36.2127 33.0794 35.0161 33.6755 33.5045L33.7177 33.3972Z" fill="white"/>
<defs>
<linearGradient id="paint0_linear_147_8415" x1="-3.5352e-08" y1="42" x2="56.2054" y2="17.131" gradientUnits="userSpaceOnUse">
<stop stop-color="#F95BD0"/>
<stop offset="0.528846" stop-color="#FFB675"/>
<stop offset="1" stop-color="#A179FF"/>
</linearGradient>
<linearGradient id="paint1_linear_147_8415" x1="2" y1="41" x2="54.1908" y2="17.9073" gradientUnits="userSpaceOnUse">
<stop stop-color="#F95BD0"/>
<stop offset="0.528846" stop-color="#FFB675"/>
<stop offset="1" stop-color="#A179FF"/>
</linearGradient>
</defs>
</svg>
