<svg width="67" height="66" viewBox="0 0 67 66" fill="none" xmlns="http://www.w3.org/2000/svg">
<rect opacity="0.3" width="67" height="66" rx="15" fill="url(#paint0_linear_146_6268)"/>
<path d="M48.0833 26.6203C48.0833 30.4726 44.8183 33.596 40.7917 33.596C40.3181 33.5966 39.8461 33.5529 39.381 33.4655C39.0462 33.4027 38.8788 33.3713 38.762 33.3891C38.6451 33.4069 38.4795 33.495 38.1483 33.6711C37.2115 34.1693 36.119 34.3453 35.0684 34.1499C35.4677 33.6587 35.7404 33.0694 35.8608 32.4377C35.9337 32.0512 35.7531 31.6758 35.4825 31.4011C34.2534 30.1529 33.5 28.4712 33.5 26.6203C33.5 22.768 36.7649 19.6445 40.7917 19.6445C44.8183 19.6445 48.0833 22.768 48.0833 26.6203Z" stroke="#582F39" stroke-width="2" stroke-linejoin="round"/>
<path d="M38.5928 26.9375H38.6046M42.9678 26.9375H42.9796" stroke="#582F39" stroke-width="2" stroke-linecap="round"/>
<path d="M26.9401 47.3551H22.8805C22.409 47.3551 21.9356 47.2888 21.5025 47.1027C20.0929 46.4971 19.3777 45.6973 19.0444 45.197C18.8547 44.9124 18.8818 44.5497 19.0875 44.2765C20.7207 42.1072 24.5143 40.797 26.947 40.7969C29.3798 40.797 33.1665 42.1072 34.7997 44.2765C35.0054 44.5497 35.0324 44.9124 34.8428 45.197C34.5094 45.6973 33.7943 46.4971 32.3847 47.1027C31.9515 47.2888 31.4781 47.3551 31.0067 47.3551H26.9401Z" stroke="#582F39" stroke-width="2" stroke-linecap="round" stroke-linejoin="round"/>
<path d="M30.9997 33.1919C30.9997 35.425 29.1854 37.2354 26.9473 37.2354C24.7093 37.2354 22.895 35.425 22.895 33.1919C22.895 30.9588 24.7093 29.1484 26.9473 29.1484C29.1854 29.1484 30.9997 30.9588 30.9997 33.1919Z" stroke="#582F39" stroke-width="2" stroke-linecap="round" stroke-linejoin="round"/>
<defs>
<linearGradient id="paint0_linear_146_6268" x1="2.69113" y1="33.6" x2="62.0074" y2="33.1974" gradientUnits="userSpaceOnUse">
<stop stop-color="#E873CA"/>
<stop offset="0.528846" stop-color="#FFB069"/>
<stop offset="1" stop-color="#AA8DEF"/>
</linearGradient>
</defs>
</svg>
