<svg width="24" height="24" viewBox="0 0 24 24" fill="none" xmlns="http://www.w3.org/2000/svg">
<path d="M21.9995 14.9995V8.99951C21.9995 3.99951 19.9995 1.99951 14.9995 1.99951H8.99951C3.99951 1.99951 1.99951 3.99951 1.99951 8.99951V14.9995C1.99951 19.9995 3.99951 21.9995 8.99951 21.9995H14.9995C19.9995 21.9995 21.9995 19.9995 21.9995 14.9995Z" stroke="#292D32" stroke-width="1.5" stroke-linecap="round" stroke-linejoin="round"/>
<path d="M9.62 17.3C10.7908 17.3 11.74 16.3509 11.74 15.1801C11.74 14.0092 10.7908 13.0601 9.62 13.0601C8.44915 13.0601 7.5 14.0092 7.5 15.1801C7.5 16.3509 8.44915 17.3 9.62 17.3Z" stroke="#292D32" stroke-width="1.5" stroke-linecap="round" stroke-linejoin="round"/>
<path d="M11.7407 15.18V7.77002" stroke="#292D32" stroke-width="1.5" stroke-linecap="round" stroke-linejoin="round"/>
<path d="M13.1307 6.7701L15.4707 7.55006C16.0407 7.74006 16.5007 8.38006 16.5007 8.98006V9.60005C16.5007 10.4101 15.8707 10.8601 15.1107 10.6001L12.7708 9.82008C12.2008 9.63008 11.7407 8.99009 11.7407 8.39009V7.7701C11.7407 6.9701 12.3607 6.5101 13.1307 6.7701Z" stroke="#292D32" stroke-width="1.5" stroke-linecap="round" stroke-linejoin="round"/>
</svg>
