<svg width="22" height="22" viewBox="0 0 22 22" fill="none" xmlns="http://www.w3.org/2000/svg">
<path d="M7.33309 20.1667H14.6664C18.3514 20.1667 19.0114 18.6908 19.2039 16.8942L19.8914 9.56083C20.1389 7.32417 19.4973 5.5 15.5831 5.5H6.41643C2.50226 5.5 1.86059 7.32417 2.10809 9.56083L2.79559 16.8942C2.98809 18.6908 3.64809 20.1667 7.33309 20.1667Z" stroke="#4FA1E2" stroke-width="1.5" stroke-miterlimit="10" stroke-linecap="round" stroke-linejoin="round"/>
<path d="M7.33301 5.50065V4.76732C7.33301 3.14482 7.33301 1.83398 10.2663 1.83398H11.733C14.6663 1.83398 14.6663 3.14482 14.6663 4.76732V5.50065" stroke="#4FA1E2" stroke-width="1.5" stroke-miterlimit="10" stroke-linecap="round" stroke-linejoin="round"/>
<path d="M12.8337 11.9167V12.8333C12.8337 12.8425 12.8337 12.8425 12.8337 12.8517C12.8337 13.8508 12.8245 14.6667 11.0003 14.6667C9.18533 14.6667 9.16699 13.86 9.16699 12.8608V11.9167C9.16699 11 9.16699 11 10.0837 11H11.917C12.8337 11 12.8337 11 12.8337 11.9167Z" stroke="#4FA1E2" stroke-width="1.5" stroke-miterlimit="10" stroke-linecap="round" stroke-linejoin="round"/>
<path d="M19.8455 10.084C17.728 11.624 15.308 12.5407 12.833 12.8523" stroke="#4FA1E2" stroke-width="1.5" stroke-miterlimit="10" stroke-linecap="round" stroke-linejoin="round"/>
<path d="M2.40137 10.3301C4.46387 11.7417 6.7922 12.5942 9.16637 12.8601" stroke="#4FA1E2" stroke-width="1.5" stroke-miterlimit="10" stroke-linecap="round" stroke-linejoin="round"/>
</svg>
