<svg width="24" height="24" viewBox="0 0 24 24" fill="none" xmlns="http://www.w3.org/2000/svg">
<path d="M8 2V5" stroke="url(#paint0_linear_982_18157)" stroke-width="1.5" stroke-miterlimit="10" stroke-linecap="round" stroke-linejoin="round"/>
<path d="M16 2V5" stroke="url(#paint1_linear_982_18157)" stroke-width="1.5" stroke-miterlimit="10" stroke-linecap="round" stroke-linejoin="round"/>
<path d="M3.5 9.08984H20.5" stroke="url(#paint2_linear_982_18157)" stroke-width="1.5" stroke-miterlimit="10" stroke-linecap="round" stroke-linejoin="round"/>
<path d="M21 8.5V17C21 20 19.5 22 16 22H8C4.5 22 3 20 3 17V8.5C3 5.5 4.5 3.5 8 3.5H16C19.5 3.5 21 5.5 21 8.5Z" stroke="url(#paint3_linear_982_18157)" stroke-width="1.5" stroke-miterlimit="10" stroke-linecap="round" stroke-linejoin="round"/>
<path d="M15.6954 13.6992H15.7044" stroke="url(#paint4_linear_982_18157)" stroke-width="2" stroke-linecap="round" stroke-linejoin="round"/>
<path d="M15.6954 16.6992H15.7044" stroke="url(#paint5_linear_982_18157)" stroke-width="2" stroke-linecap="round" stroke-linejoin="round"/>
<path d="M11.9945 13.6992H12.0035" stroke="url(#paint6_linear_982_18157)" stroke-width="2" stroke-linecap="round" stroke-linejoin="round"/>
<path d="M11.9945 16.6992H12.0035" stroke="url(#paint7_linear_982_18157)" stroke-width="2" stroke-linecap="round" stroke-linejoin="round"/>
<path d="M8.29358 13.6992H8.30256" stroke="url(#paint8_linear_982_18157)" stroke-width="2" stroke-linecap="round" stroke-linejoin="round"/>
<path d="M8.29358 16.6992H8.30256" stroke="url(#paint9_linear_982_18157)" stroke-width="2" stroke-linecap="round" stroke-linejoin="round"/>
<defs>
<linearGradient id="paint0_linear_982_18157" x1="8.5" y1="2.2414" x2="8.5" y2="4.4006" gradientUnits="userSpaceOnUse">
<stop stop-color="#202025"/>
<stop offset="1"/>
</linearGradient>
<linearGradient id="paint1_linear_982_18157" x1="16.5" y1="2.2414" x2="16.5" y2="4.4006" gradientUnits="userSpaceOnUse">
<stop stop-color="#202025"/>
<stop offset="1"/>
</linearGradient>
<linearGradient id="paint2_linear_982_18157" x1="12" y1="9.17031" x2="12" y2="9.89004" gradientUnits="userSpaceOnUse">
<stop stop-color="#202025"/>
<stop offset="1"/>
</linearGradient>
<linearGradient id="paint3_linear_982_18157" x1="12" y1="4.98866" x2="12" y2="18.3037" gradientUnits="userSpaceOnUse">
<stop stop-color="#202025"/>
<stop offset="1"/>
</linearGradient>
<linearGradient id="paint4_linear_982_18157" x1="15.6999" y1="13.2797" x2="15.6999" y2="13.9994" gradientUnits="userSpaceOnUse">
<stop stop-color="#202025"/>
<stop offset="1"/>
</linearGradient>
<linearGradient id="paint5_linear_982_18157" x1="15.6999" y1="16.2797" x2="15.6999" y2="16.9994" gradientUnits="userSpaceOnUse">
<stop stop-color="#202025"/>
<stop offset="1"/>
</linearGradient>
<linearGradient id="paint6_linear_982_18157" x1="11.999" y1="13.2797" x2="11.999" y2="13.9994" gradientUnits="userSpaceOnUse">
<stop stop-color="#202025"/>
<stop offset="1"/>
</linearGradient>
<linearGradient id="paint7_linear_982_18157" x1="11.999" y1="16.2797" x2="11.999" y2="16.9994" gradientUnits="userSpaceOnUse">
<stop stop-color="#202025"/>
<stop offset="1"/>
</linearGradient>
<linearGradient id="paint8_linear_982_18157" x1="8.29807" y1="13.2797" x2="8.29807" y2="13.9994" gradientUnits="userSpaceOnUse">
<stop stop-color="#202025"/>
<stop offset="1"/>
</linearGradient>
<linearGradient id="paint9_linear_982_18157" x1="8.29807" y1="16.2797" x2="8.29807" y2="16.9994" gradientUnits="userSpaceOnUse">
<stop stop-color="#202025"/>
<stop offset="1"/>
</linearGradient>
</defs>
</svg>
