<svg width="40" height="40" viewBox="0 0 40 40" fill="none" xmlns="http://www.w3.org/2000/svg">
<path d="M23.6178 34.8188C30.5895 34.3555 36.1428 28.7233 36.5998 21.6528C36.6892 20.2691 36.6892 18.8361 36.5998 17.4525C36.1428 10.3819 30.5895 4.74985 23.6178 4.28642C21.2393 4.12832 18.7562 4.12865 16.3825 4.28642C9.41081 4.74985 3.85751 10.3819 3.40056 17.4525C3.31114 18.8361 3.31114 20.2691 3.40056 21.6528C3.56699 24.228 4.70588 26.6123 6.04668 28.6256C6.82517 30.0351 6.31139 31.7943 5.50051 33.331C4.91584 34.439 4.62351 34.993 4.85823 35.3931C5.09296 35.7933 5.61726 35.8061 6.66588 35.8316C8.73961 35.8821 10.138 35.2941 11.248 34.4756C11.8775 34.0115 12.1923 33.7793 12.4092 33.7526C12.6262 33.726 13.0531 33.9018 13.9068 34.2535C14.6742 34.5695 15.5651 34.7645 16.3825 34.8188C18.7562 34.9766 21.2393 34.977 23.6178 34.8188Z" stroke="black" stroke-width="2" stroke-linejoin="round"/>
<path d="M12.5 25L15.5698 15.7906C15.7272 15.3185 16.169 15 16.6667 15C17.1643 15 17.6062 15.3185 17.7635 15.7906L20.8333 25M25.8333 15V25M14.1667 21.6667H19.1667" stroke="black" stroke-width="2" stroke-linecap="round" stroke-linejoin="round"/>
</svg>
