<svg width="40" height="40" viewBox="0 0 40 40" fill="none" xmlns="http://www.w3.org/2000/svg">
<path d="M18.3335 34.9987H16.6668C10.3814 34.9987 7.23875 34.9987 5.28611 33.046C3.3335 31.0935 3.3335 27.9507 3.3335 21.6654V16.6654C3.3335 10.38 3.3335 7.23728 5.28611 5.28465C7.23875 3.33203 10.3814 3.33203 16.6668 3.33203H20.0002C26.2855 3.33203 29.4283 3.33203 31.3808 5.28465C33.3335 7.23728 33.3335 10.38 33.3335 16.6654V17.4987" stroke="#141B34" stroke-width="2" stroke-linecap="round" stroke-linejoin="round"/>
<path d="M29.0116 24.0047C29.3655 23.1078 30.6348 23.1078 30.9886 24.0047L31.0498 24.1602C31.9138 26.3508 33.648 28.085 35.8386 28.949L35.9941 29.0102C36.891 29.364 36.891 30.6333 35.9941 30.9872L35.8386 31.0483C33.648 31.9123 31.9138 33.6465 31.0498 35.8372L30.9886 35.9927C30.6348 36.8895 29.3655 36.8895 29.0116 35.9927L28.9505 35.8372C28.0865 33.6465 26.3523 31.9123 24.1616 31.0483L24.0061 30.9872C23.1093 30.6333 23.1093 29.364 24.0061 29.0102L24.1616 28.949C26.3523 28.085 28.0865 26.3508 28.9505 24.1602L29.0116 24.0047Z" stroke="#141B34" stroke-width="2" stroke-linecap="round" stroke-linejoin="round"/>
<path d="M11.6665 11.668H24.9998M11.6665 19.168H24.9998M11.6665 26.668H18.3332" stroke="#141B34" stroke-width="2" stroke-linecap="round" stroke-linejoin="round"/>
</svg>
