<svg width="154" height="154" viewBox="0 0 154 154" fill="none" xmlns="http://www.w3.org/2000/svg">
<g filter="url(#filter0_di_264_1621)">
<rect x="2" y="4" width="142" height="142" rx="35" fill="black"/>
<rect x="3" y="5" width="140" height="140" rx="34" stroke="white" stroke-width="2"/>
</g>
<path fill-rule="evenodd" clip-rule="evenodd" d="M122.89 78.0246C122.759 81.3017 122.125 84.4971 121.295 87.6604C121.229 87.9135 121.187 88.1728 121.132 88.429C120.538 90.0992 120.042 91.8059 119.321 93.4313C118.893 94.3933 118.471 95.3577 118.029 96.314C117.889 96.6213 117.803 96.9146 117.858 97.261C118.387 100.609 118.904 103.96 119.428 107.309C119.448 107.436 119.506 107.558 119.546 107.682C119.882 109.933 120.212 112.184 120.554 114.434C121.073 117.835 121.594 121.237 122.135 124.635C122.197 125.022 122.091 125.028 121.77 124.978C119.282 124.594 116.792 124.229 114.304 123.849C110.396 123.254 106.491 122.652 102.584 122.052C99.2891 121.545 95.9935 121.042 92.6995 120.524C92.4 120.478 92.1399 120.503 91.8638 120.615C87.8757 122.243 83.739 123.343 79.463 123.861C69.9807 125.01 60.8662 123.684 52.1591 119.729C45.9973 116.93 40.6392 113.031 36.0864 108.065C29.7414 101.146 25.6729 93.0776 23.8993 83.8794C23.245 80.4851 22.9872 77.0556 23.0005 73.6036C23.0024 73.145 23.0438 72.6864 23.0664 72.2278C23.229 70.0715 23.3608 67.9105 23.7867 65.7843C24.1302 64.068 24.5018 62.3548 25.024 60.6826C25.9123 57.8374 26.895 55.0255 28.2728 52.3672C28.4642 51.9984 28.6545 51.6292 28.846 51.2604C29.608 50.0065 30.3341 48.7294 31.139 47.5034C32.3182 45.707 33.5989 43.981 35.0316 42.3711C35.1166 42.2759 35.163 42.147 35.2273 42.0336C35.8669 41.5193 36.3516 40.8583 36.9186 40.2763C39.2455 37.8901 41.7701 35.7307 44.5229 33.8406C48.0637 31.4091 51.8413 29.4277 55.9 27.9853C56.1036 27.9126 56.341 27.8909 56.4526 27.661C57.7691 27.4699 58.9955 26.9501 60.2754 26.6208C62.7337 25.9884 65.2201 25.5391 67.7447 25.2806C69.2371 25.1281 70.731 25.0484 72.2312 25.0132C77.0527 24.9002 81.7806 25.5144 86.4215 26.7864C91.0738 28.0616 95.4448 29.9873 99.541 32.5213C102.244 34.1935 104.742 36.1265 107.085 38.2724C112.156 42.9175 116.018 48.4063 118.837 54.6392C118.845 54.6578 118.868 54.6694 118.885 54.6841C119.97 57.2538 120.928 59.8668 121.569 62.5854C122.216 65.3354 122.701 68.1059 122.906 70.9317C123.062 73.1059 122.972 75.2742 122.992 77.4449C122.994 77.6388 122.926 77.8319 122.89 78.0246ZM114.536 79.4785C114.616 78.8528 114.736 78.2293 114.769 77.6016C114.86 75.8303 114.937 74.0641 114.804 72.2831C114.653 70.2487 114.412 68.2328 114.012 66.2371C113.433 63.3455 112.508 60.5576 111.304 57.8614C111.011 57.2232 110.754 56.5653 110.418 55.95C109.131 53.5986 107.76 51.3076 106.063 49.2078C104.429 47.1846 102.686 45.2829 100.73 43.5607C97.7523 40.9388 94.4719 38.798 90.8846 37.0859C85.5277 34.529 79.8557 33.3278 73.9533 33.0732C72.0534 32.9915 70.1531 33.1382 68.2735 33.3595C65.0481 33.7392 61.8766 34.4176 58.8259 35.5604C57.3819 36.101 55.9211 36.6099 54.5897 37.4079C53.1773 37.9895 51.8826 38.7856 50.5973 39.5921C46.8782 41.9257 43.6182 44.7863 40.8116 48.1459C40.0714 49.0321 39.2876 49.9001 38.7674 50.95C38.6493 51.0797 38.5143 51.1981 38.4153 51.3405C36.9923 53.3842 35.7741 55.5452 34.7625 57.8145C34.1928 59.0928 33.5989 60.3699 33.3122 61.7538C33.0163 62.2054 32.941 62.7348 32.7998 63.2375C31.8748 66.5351 31.2575 69.8803 31.2076 73.316C31.1737 75.6833 31.2544 78.0397 31.5878 80.3903C31.9322 82.8199 32.4555 85.201 33.2857 87.513C33.3298 87.6828 33.3625 87.8566 33.4203 88.0215C35.9554 95.259 40.1206 101.422 46.0468 106.324C54.7422 113.516 64.7755 116.767 76.1043 116.019C80.6111 115.721 84.9268 114.672 89.0721 112.919C90.2034 112.44 91.2867 111.877 92.5814 112.29C93.0376 112.436 93.5294 112.48 94.0078 112.552C97.0753 113.011 100.145 113.453 103.211 113.924C106.123 114.371 109.03 114.848 111.939 115.309C112.284 115.363 112.383 115.29 112.313 114.882C111.991 113.017 111.727 111.142 111.442 109.271C111.297 108.233 111.165 107.193 111.002 106.158C110.457 102.683 109.899 99.2087 109.349 95.7339C109.313 95.5149 109.341 95.3113 109.448 95.1004C109.905 94.2037 110.343 93.2958 110.787 92.3918C111.146 91.9607 111.313 91.4309 111.525 90.9282C113.069 87.2525 114.168 83.4599 114.536 79.4785Z" fill="white"/>
<path fill-rule="evenodd" clip-rule="evenodd" d="M98.322 81.7176C96.9267 85.2543 94.8732 88.3588 92.0756 90.9563C91.2263 91.7446 90.29 92.4404 89.3934 93.1788C87.5466 94.3506 85.6557 95.4331 83.574 96.1602C81.3735 96.9284 79.1215 97.3897 76.7911 97.5677C73.6168 97.8092 70.4982 97.505 67.526 96.44C65.8324 95.8332 64.2947 96.3166 62.7119 96.5348C58.7795 97.0778 54.8612 97.7229 50.9374 98.3278C50.6975 98.3649 50.4589 98.4087 50.2198 98.4489C50.1676 97.1718 50.469 95.9296 50.6917 94.6931C51.0571 92.668 51.3262 90.6289 51.6709 88.6014C51.9493 86.9641 52.2028 85.322 52.3798 83.6688C52.4071 83.4138 52.404 83.1916 52.3061 82.9772C51.603 81.4381 51.0805 79.8422 50.7326 78.1886C50.7108 78.0852 50.6402 77.992 50.5923 77.894C50.6983 76.966 50.4004 76.0748 50.3138 75.165C50.0732 72.6352 50.3201 70.1526 50.7861 67.6739C50.9596 66.7497 51.224 65.8546 51.5352 64.9707C52.4641 62.5191 53.6499 60.206 55.257 58.1155C57.4139 55.3098 60.0391 53.0493 63.1564 51.3462C63.8311 50.9774 64.5205 50.6449 65.2209 50.3315C67.5868 49.3961 70.0081 48.7162 72.5635 48.4735C75.9491 48.1519 79.2634 48.4422 82.4946 49.4526C85.5972 50.4228 88.4174 51.941 90.9287 54.0172C93.1227 55.8307 94.9157 57.9766 96.4436 60.355C97.755 62.629 98.7385 65.0295 99.3059 67.5949C100.269 71.9382 100.078 76.2284 98.7365 80.4699C98.6043 80.8882 98.4604 81.3019 98.322 81.7176ZM90.4935 78.5577C90.5719 78.4026 90.6725 78.2543 90.7259 78.0906C91.6439 75.2764 91.8007 72.415 91.1643 69.5291C90.3407 65.795 88.4045 62.7173 85.4217 60.3063C82.7399 58.1387 79.6526 56.9081 76.2049 56.6855C72.9589 56.4762 69.8743 57.1186 67.0268 58.7366C63.4294 60.7807 60.9001 63.7138 59.5306 67.612C58.9347 69.1162 58.6754 70.6971 58.6044 72.2938C58.4648 75.4339 59.1788 78.389 60.787 81.1119C61.0565 81.5686 61.1743 82.033 61.0916 82.5566C60.8171 84.2864 60.5515 86.0175 60.2812 87.7481C60.1697 88.4629 60.2321 88.536 60.9785 88.4219C62.504 88.1881 64.0288 87.9486 65.5512 87.6924C66.562 87.5225 67.4893 87.5035 68.4997 87.9641C71.2883 89.2349 74.2594 89.6901 77.2996 89.1974C81.4203 88.5283 84.9147 86.661 87.6667 83.5012C88.9399 82.0403 89.831 80.3631 90.4935 78.5577Z" fill="white"/>
<defs>
<filter id="filter0_di_264_1621" x="0" y="0" width="154" height="154" filterUnits="userSpaceOnUse" color-interpolation-filters="sRGB">
<feFlood flood-opacity="0" result="BackgroundImageFix"/>
<feColorMatrix in="SourceAlpha" type="matrix" values="0 0 0 0 0 0 0 0 0 0 0 0 0 0 0 0 0 0 127 0" result="hardAlpha"/>
<feOffset dx="4" dy="2"/>
<feGaussianBlur stdDeviation="3"/>
<feColorMatrix type="matrix" values="0 0 0 0 0.282353 0 0 0 0 0.392157 0 0 0 0 0.490196 0 0 0 0.17 0"/>
<feBlend mode="normal" in2="BackgroundImageFix" result="effect1_dropShadow_264_1621"/>
<feBlend mode="normal" in="SourceGraphic" in2="effect1_dropShadow_264_1621" result="shape"/>
<feColorMatrix in="SourceAlpha" type="matrix" values="0 0 0 0 0 0 0 0 0 0 0 0 0 0 0 0 0 0 127 0" result="hardAlpha"/>
<feOffset dx="-2" dy="-2"/>
<feGaussianBlur stdDeviation="3"/>
<feComposite in2="hardAlpha" operator="arithmetic" k2="-1" k3="1"/>
<feColorMatrix type="matrix" values="0 0 0 0 0.282353 0 0 0 0 0.392157 0 0 0 0 0.490196 0 0 0 0.12 0"/>
<feBlend mode="normal" in2="shape" result="effect2_innerShadow_264_1621"/>
</filter>
</defs>
</svg>
