<svg width="40" height="40" viewBox="0 0 40 40" fill="none" xmlns="http://www.w3.org/2000/svg">
<path d="M11.6665 13.332L16.5699 16.2311C19.4285 17.9212 20.5712 17.9212 23.4298 16.2311L28.3332 13.332" stroke="#141B34" stroke-width="2" stroke-linecap="round" stroke-linejoin="round"/>
<path d="M36.6405 21.626C36.6757 19.9832 36.6757 18.3502 36.6405 16.7073C36.5317 11.5981 36.4772 9.04349 34.592 7.1511C32.7067 5.25872 30.083 5.1928 24.8355 5.06095C21.6013 4.97969 18.399 4.97969 15.1649 5.06094C9.91738 5.19277 7.29363 5.25869 5.40841 7.15109C3.5232 9.04347 3.46873 11.5981 3.35976 16.7073C3.32473 18.3502 3.32475 19.9832 3.35978 21.626C3.46873 26.7353 3.52321 29.2898 5.40843 31.1823C7.29363 33.0747 9.91738 33.1405 15.1649 33.2723C17.3402 33.327 19.501 33.345 21.6668 33.3262" stroke="#141B34" stroke-width="2" stroke-linecap="round" stroke-linejoin="round"/>
<path d="M30.8333 23.332L31.2632 24.4937C31.8268 26.017 32.1087 26.7787 32.6643 27.3344C33.22 27.89 33.9817 28.1719 35.505 28.7355L36.6667 29.1654L35.505 29.5952C33.9817 30.1589 33.22 30.4407 32.6643 30.9964C32.1087 31.552 31.8268 32.3137 31.2632 33.837L30.8333 34.9987L30.4035 33.837C29.8398 32.3137 29.558 31.552 29.0023 30.9964C28.4467 30.4407 27.685 30.1589 26.1617 29.5952L25 29.1654L26.1617 28.7355C27.685 28.1719 28.4467 27.89 29.0023 27.3344C29.558 26.7787 29.8398 26.017 30.4035 24.4937L30.8333 23.332Z" stroke="#141B34" stroke-width="2" stroke-linejoin="round"/>
</svg>
