<svg width="20" height="20" viewBox="0 0 20 20" fill="none" xmlns="http://www.w3.org/2000/svg">
<path d="M6.66675 14.167H13.3334" stroke="currentColor" stroke-width="1.5" stroke-linecap="round" stroke-linejoin="round"/>
<path d="M6.66675 10.833H10.0001" stroke="currentColor" stroke-width="1.5" stroke-linecap="round" stroke-linejoin="round"/>
<path d="M10.8333 2.08301V2.49967C10.8333 4.85667 10.8333 6.03517 11.5655 6.76742C12.2978 7.49967 13.4763 7.49967 15.8333 7.49967H16.2499M16.6666 8.88043V11.6663C16.6666 14.809 16.6666 16.3804 15.6903 17.3567C14.714 18.333 13.1426 18.333 9.99992 18.333C6.85723 18.333 5.28588 18.333 4.30956 17.3567C3.33325 16.3804 3.33325 14.809 3.33325 11.6663V7.87951C3.33325 5.17534 3.33325 3.82326 4.07164 2.90742C4.22082 2.72242 4.38934 2.55393 4.57436 2.40476C5.49018 1.66634 6.84227 1.66634 9.54642 1.66634C10.1344 1.66634 10.4283 1.66634 10.6976 1.76134C10.7536 1.78109 10.8084 1.80384 10.862 1.82942C11.1196 1.95267 11.3274 2.16051 11.7432 2.57626L15.6903 6.52334C16.172 7.00509 16.4128 7.24592 16.5398 7.55226C16.6666 7.85851 16.6666 8.19918 16.6666 8.88043Z" stroke="currentColor" stroke-width="1.5" stroke-linecap="round" stroke-linejoin="round"/>
</svg>
