<svg width="20" height="17" viewBox="0 0 20 17" fill="none" xmlns="http://www.w3.org/2000/svg">
<g clip-path="url(#clip0_11_25088)">
<path d="M11.6665 1.27148H8.33317C5.19047 1.27148 3.61913 1.27148 2.64281 2.21451C1.6665 3.15754 1.6665 4.67532 1.6665 7.71088V9.32073C1.6665 12.3563 1.6665 13.8741 2.64281 14.8171C3.61913 15.7601 5.19047 15.7601 8.33317 15.7601H11.6665C14.8092 15.7601 16.3806 15.7601 17.3568 14.8171C18.3332 13.8741 18.3332 12.3563 18.3332 9.32073V7.71088C18.3332 4.67532 18.3332 3.15754 17.3568 2.21451C16.3806 1.27148 14.8092 1.27148 11.6665 1.27148Z" stroke="currentColor" stroke-width="1.5" stroke-linecap="round" stroke-linejoin="round"/>
<path d="M7.0835 6.90598C7.77385 6.90598 8.3335 6.36542 8.3335 5.6986C8.3335 5.03178 7.77385 4.49121 7.0835 4.49121C6.39314 4.49121 5.8335 5.03178 5.8335 5.6986C5.8335 6.36542 6.39314 6.90598 7.0835 6.90598Z" stroke="currentColor" stroke-width="1.5" stroke-linecap="round" stroke-linejoin="round"/>
<path d="M17.9168 12.5405L13.6235 8.01657C13.4387 7.82178 13.1777 7.71094 12.9043 7.71094C12.6455 7.71094 12.3973 7.81027 12.2144 7.98695L8.3335 11.7356L6.5329 9.99636C6.35186 9.82145 6.10634 9.72325 5.85032 9.72325C5.57459 9.72325 5.31202 9.83714 5.12884 10.0362L2.0835 13.3454" stroke="currentColor" stroke-width="1.5" stroke-linecap="round" stroke-linejoin="round"/>
</g>
<defs>
<clipPath id="clip0_11_25088">
<rect width="20" height="17" fill="white"/>
</clipPath>
</defs>
</svg>
