<svg width="35" height="35" viewBox="0 0 35 35" fill="none" xmlns="http://www.w3.org/2000/svg">
<rect opacity="0.3" width="35" height="35" rx="17.5" fill="url(#paint0_linear_1945_26795)"/>
<rect x="6" y="6" width="23.8" height="23.8" rx="11.9" fill="url(#paint1_linear_1945_26795)"/>
<path d="M17.5003 18.3941C18.5772 18.3941 19.4503 17.5211 19.4503 16.4441C19.4503 15.3672 18.5772 14.4941 17.5003 14.4941C16.4233 14.4941 15.5503 15.3672 15.5503 16.4441C15.5503 17.5211 16.4233 18.3941 17.5003 18.3941Z" stroke="white" stroke-width="1.5"/>
<path d="M12.2621 15.3063C13.4933 9.89375 21.5121 9.9 22.7371 15.3125C23.4558 18.4875 21.4808 21.175 19.7496 22.8375C18.4933 24.05 16.5058 24.05 15.2433 22.8375C13.5183 21.175 11.5433 18.4813 12.2621 15.3063Z" stroke="white" stroke-width="1.5"/>
<defs>
<linearGradient id="paint0_linear_1945_26795" x1="32.76" y1="18.8672" x2="14.3096" y2="33.7931" gradientUnits="userSpaceOnUse">
<stop stop-color="#47B8C6"/>
<stop offset="1" stop-color="#5491F4"/>
<stop offset="1" stop-color="#2C62BC"/>
</linearGradient>
<linearGradient id="paint1_linear_1945_26795" x1="28.2768" y1="18.8297" x2="15.7306" y2="28.9793" gradientUnits="userSpaceOnUse">
<stop stop-color="#47B8C6"/>
<stop offset="1" stop-color="#5491F4"/>
<stop offset="1" stop-color="#2C62BC"/>
</linearGradient>
</defs>
</svg>
