<svg width="150" height="47" viewBox="0 0 150 47" fill="none" xmlns="http://www.w3.org/2000/svg">
<path fill-rule="evenodd" clip-rule="evenodd" d="M46.3874 24.6115C46.3262 26.1326 46.0319 27.6157 45.6467 29.084C45.6159 29.2015 45.5962 29.3218 45.571 29.4407C45.2949 30.216 45.0649 31.0081 44.7297 31.7626C44.5312 32.2091 44.3349 32.6567 44.1301 33.1006C44.0647 33.2432 44.0247 33.3794 44.0506 33.5401C44.296 35.0942 44.5363 36.6496 44.7795 38.2039C44.7887 38.263 44.8155 38.3196 44.8343 38.3771C44.9903 39.4218 45.1435 40.4668 45.3027 41.5108C45.5435 43.0897 45.7854 44.6684 46.0366 46.2459C46.0652 46.4254 46.0162 46.4282 45.8671 46.4052C44.7119 46.2269 43.5553 46.0573 42.3999 45.8811C40.5854 45.6046 38.7718 45.3253 36.9576 45.0469C35.4274 44.8118 33.8969 44.5783 32.3673 44.3379C32.2282 44.3162 32.1074 44.3279 31.9792 44.3801C30.1272 45.1357 28.2061 45.6461 26.2205 45.8865C21.8171 46.4198 17.5844 45.8046 13.541 43.9686C10.6796 42.6694 8.19136 40.8597 6.07712 38.5551C3.13058 35.3434 1.24125 31.5984 0.417643 27.3291C0.113771 25.7536 -0.00593206 24.1617 0.00022506 22.5595C0.00113052 22.3466 0.0203274 22.1338 0.0308307 21.9209C0.106346 20.92 0.167555 19.917 0.365307 18.9302C0.524849 18.1335 0.697427 17.3383 0.939909 16.5622C1.35244 15.2416 1.80879 13.9364 2.44858 12.7026C2.5375 12.5314 2.62587 12.36 2.71479 12.1888C3.06864 11.6069 3.40583 11.0141 3.77961 10.445C4.32723 9.61122 4.92193 8.81009 5.58727 8.06285C5.62674 8.01866 5.64829 7.95885 5.67817 7.90622C5.97516 7.6675 6.20026 7.3607 6.46357 7.09054C7.54414 5.98297 8.71653 4.98066 9.99485 4.10337C11.6392 2.97479 13.3934 2.05511 15.2782 1.38565C15.3727 1.35188 15.483 1.34182 15.5348 1.23512C16.1462 1.14639 16.7157 0.905151 17.3101 0.75229C18.4517 0.458783 19.6063 0.250239 20.7787 0.13025C21.4717 0.0594773 22.1655 0.0224742 22.8621 0.00612834C25.1012 -0.0463222 27.2967 0.238743 29.4519 0.82917C31.6123 1.42103 33.6422 2.31485 35.5443 3.49103C36.7997 4.26719 37.9597 5.16442 39.0477 6.16044C41.4027 8.31648 43.1962 10.8641 44.5049 13.7571C44.5086 13.7658 44.5194 13.7712 44.5272 13.778C45.0312 14.9707 45.4761 16.1835 45.7737 17.4454C46.0743 18.7218 46.2996 20.0077 46.3944 21.3194C46.4672 22.3285 46.4252 23.3349 46.4345 24.3424C46.4356 24.4324 46.404 24.5221 46.3874 24.6115ZM42.5079 25.2864C42.545 24.9959 42.6006 24.7065 42.6158 24.4152C42.6582 23.593 42.694 22.7732 42.6321 21.9466C42.562 21.0023 42.4503 20.0666 42.2647 19.1403C41.9956 17.7982 41.5662 16.5041 41.007 15.2527C40.8708 14.9565 40.7513 14.6511 40.5953 14.3655C39.9979 13.2741 39.361 12.2107 38.5731 11.2361C37.8141 10.297 37.005 9.41435 36.0965 8.61502C34.7137 7.39806 33.1903 6.40437 31.5245 5.60971C29.0368 4.42293 26.4028 3.86537 23.6618 3.74718C22.7796 3.70928 21.8971 3.77736 21.0242 3.8801C19.5264 4.05631 18.0536 4.3712 16.6369 4.90163C15.9663 5.15257 15.288 5.38877 14.6697 5.75916C14.0138 6.02913 13.4126 6.39862 12.8157 6.77296C11.0886 7.8561 9.57472 9.18389 8.2714 10.7432C7.92769 11.1546 7.5637 11.5575 7.32212 12.0448C7.26725 12.1049 7.20459 12.1599 7.1586 12.226C6.49779 13.1746 5.93206 14.1776 5.46231 15.231C5.19774 15.8243 4.92193 16.417 4.78883 17.0594C4.65138 17.269 4.61643 17.5147 4.55088 17.748C4.12133 19.2786 3.83466 20.8313 3.81148 22.426C3.79573 23.5248 3.83321 24.6185 3.98804 25.7096C4.14795 26.8373 4.39097 27.9425 4.77652 29.0156C4.79698 29.0944 4.81219 29.1751 4.83899 29.2516C6.01627 32.6109 7.95051 35.4713 10.7026 37.7466C14.7405 41.0847 19.3998 42.5941 24.6607 42.2467C26.7536 42.1084 28.7578 41.6213 30.6828 40.8078C31.2081 40.5858 31.7112 40.3244 32.3124 40.5161C32.5243 40.5838 32.7526 40.6039 32.9748 40.6373C34.3993 40.8505 35.825 41.0556 37.2488 41.2743C38.601 41.4819 39.951 41.703 41.302 41.9169C41.4619 41.9423 41.5079 41.9083 41.4753 41.7192C41.3261 40.8532 41.2033 39.9831 41.0711 39.1144C41.0035 38.6327 40.9423 38.1502 40.8666 37.6699C40.6135 36.0567 40.3545 34.4442 40.0988 32.8313C40.0825 32.7297 40.0952 32.6352 40.1452 32.5373C40.3574 32.1211 40.5604 31.6997 40.7667 31.2801C40.9336 31.08 41.0111 30.8341 41.1095 30.6008C41.8266 28.8947 42.3369 27.1344 42.5079 25.2864Z" fill="white"/>
<path fill-rule="evenodd" clip-rule="evenodd" d="M34.9783 26.3254C34.3304 27.967 33.3767 29.408 32.0776 30.6136C31.6832 30.9795 31.2484 31.3025 30.832 31.6452C29.9744 32.1891 29.0963 32.6915 28.1296 33.029C27.1077 33.3856 26.0619 33.5997 24.9797 33.6823C23.5056 33.7944 22.0574 33.6532 20.6771 33.1589C19.8907 32.8773 19.1766 33.1016 18.4416 33.2029C16.6154 33.4549 14.7958 33.7544 12.9737 34.0351C12.8623 34.0524 12.7515 34.0727 12.6405 34.0913C12.6162 33.4986 12.7562 32.922 12.8596 32.3481C13.0293 31.4081 13.1542 30.4617 13.3143 29.5206C13.4436 28.7606 13.5613 27.9985 13.6435 27.2311C13.6562 27.1127 13.6548 27.0096 13.6093 26.9101C13.2828 26.1958 13.0401 25.455 12.8786 24.6874C12.8685 24.6395 12.8357 24.5962 12.8134 24.5507C12.8627 24.12 12.7243 23.7063 12.6841 23.284C12.5724 22.1098 12.687 20.9575 12.9034 19.807C12.984 19.3781 13.1068 18.9626 13.2513 18.5524C13.6827 17.4144 14.2334 16.3408 14.9796 15.3705C15.9812 14.0682 17.2004 13.019 18.648 12.2285C18.9613 12.0573 19.2815 11.903 19.6067 11.7575C20.7054 11.3233 21.8298 11.0077 23.0165 10.8951C24.5887 10.7459 26.1278 10.8806 27.6283 11.3496C29.0691 11.7999 30.3788 12.5046 31.545 13.4682C32.5638 14.31 33.3965 15.306 34.106 16.41C34.715 17.4654 35.1717 18.5797 35.4352 19.7704C35.8823 21.7863 35.7939 23.7776 35.1708 25.7463C35.1094 25.9405 35.0426 26.1325 34.9783 26.3254ZM31.3429 24.8588C31.3793 24.7868 31.426 24.718 31.4508 24.642C31.8771 23.3358 31.9499 22.0076 31.6544 20.6682C31.2719 18.935 30.3728 17.5064 28.9876 16.3873C27.7422 15.3813 26.3085 14.81 24.7075 14.7068C23.2001 14.6096 21.7677 14.9078 20.4453 15.6588C18.7748 16.6076 17.6002 17.9689 16.9642 19.7783C16.6875 20.4765 16.5671 21.2103 16.5341 21.9514C16.4693 23.4089 16.8009 24.7805 17.5477 26.0443C17.6728 26.2563 17.7275 26.4718 17.6891 26.7149C17.5616 27.5178 17.4383 28.3213 17.3128 29.1245C17.261 29.4563 17.29 29.4903 17.6366 29.4373C18.345 29.3288 19.0531 29.2176 19.7601 29.0987C20.2295 29.0198 20.6601 29.011 21.1293 29.2248C22.4243 29.8147 23.804 30.0259 25.2158 29.7972C27.1294 29.4867 28.7522 28.62 30.0302 27.1533C30.6214 26.4752 31.0352 25.6968 31.3429 24.8588Z" fill="white"/>
<path d="M72.2065 20.9275H68.8225C68.3185 19.1515 66.9505 18.2155 65.1265 18.2155C62.3905 18.2155 60.8065 20.4475 60.8065 24.0715C60.8065 27.7195 62.3665 29.8795 65.1265 29.8795C66.8545 29.8795 68.2225 28.9915 68.7745 27.2875H72.1825C71.3185 30.6955 68.5105 32.5675 65.1745 32.5675C60.3985 32.5675 57.4945 29.3515 57.4945 24.0715C57.4945 18.8155 60.4465 15.5275 65.2225 15.5275C68.6065 15.5275 71.4625 17.3755 72.2065 20.9275ZM74.4482 32.2075V14.9275H77.5202V21.0715C78.3602 19.6795 79.7042 18.9835 81.3362 18.9835C83.9042 18.9835 85.6562 20.5195 85.6562 23.6395V32.2075H82.5842V24.2635C82.5842 22.5115 81.8402 21.5275 80.2802 21.5275C78.5762 21.5275 77.5202 23.0155 77.5202 24.7435V32.2075H74.4482ZM88.4873 17.9035V14.9275H91.5593V17.9035H88.4873ZM88.4873 32.2075V19.3435H91.5593V32.2075H88.4873ZM94.7781 28.1995V21.7195H93.1221V19.3435H94.7781V16.3915H97.8501V19.3435H100.562V21.7195H97.8501V27.9355C97.8501 29.2795 98.2341 29.9995 99.9381 29.9995H100.514V32.2555C100.178 32.4235 99.4821 32.5675 98.6421 32.5675C96.0261 32.5675 94.7781 31.0795 94.7781 28.1995ZM113.498 23.9035H110.426C110.138 22.2235 109.13 21.5275 107.834 21.5275C105.938 21.5275 104.93 23.0395 104.93 25.7995C104.93 28.5115 105.986 30.0235 107.93 30.0235C109.25 30.0235 110.186 29.3035 110.498 27.8395H113.594C113.018 31.0555 110.762 32.5675 107.858 32.5675C104.066 32.5675 101.762 29.9755 101.762 25.7995C101.762 21.4315 104.138 18.9835 107.834 18.9835C110.762 18.9835 113.066 20.6155 113.498 23.9035ZM115.722 32.2075V14.9275H118.794V21.0715C119.634 19.6795 120.978 18.9835 122.61 18.9835C125.178 18.9835 126.93 20.5195 126.93 23.6395V32.2075H123.858V24.2635C123.858 22.5115 123.114 21.5275 121.554 21.5275C119.85 21.5275 118.794 23.0155 118.794 24.7435V32.2075H115.722ZM132.737 23.5675H129.641C130.049 20.7115 132.137 18.9835 135.377 18.9835C138.953 18.9835 140.777 21.0955 140.777 24.0715V29.0635C140.777 30.6475 140.921 31.5355 141.161 32.2075H137.969C137.801 31.7755 137.729 31.1515 137.705 30.4555C136.649 31.9435 135.065 32.5675 133.529 32.5675C131.009 32.5675 129.209 31.3195 129.209 28.8475C129.209 27.0955 130.193 25.7755 132.161 25.1275C133.865 24.5515 135.521 24.4075 137.681 24.3835V24.0715C137.681 22.4155 136.889 21.5275 135.185 21.5275C133.721 21.5275 132.929 22.3435 132.737 23.5675ZM132.305 28.6795C132.305 29.6635 133.073 30.2875 134.321 30.2875C136.217 30.2875 137.681 28.7515 137.681 26.8315V26.2795C133.313 26.3515 132.305 27.3835 132.305 28.6795ZM144.114 28.1995V21.7195H142.458V19.3435H144.114V16.3915H147.186V19.3435H149.898V21.7195H147.186V27.9355C147.186 29.2795 147.57 29.9995 149.274 29.9995H149.85V32.2555C149.514 32.4235 148.818 32.5675 147.978 32.5675C145.362 32.5675 144.114 31.0795 144.114 28.1995Z" fill="white"/>
</svg>
