<svg width="20" height="21" viewBox="0 0 20 21" fill="none" color="white" xmlns="http://www.w3.org/2000/svg">
<path d="M17.7146 8.28366V12.867C17.7146 14.7767 17.3327 16.1135 16.4771 16.9767L11.6035 12.1031L17.5084 6.19824C17.6459 6.80171 17.7146 7.48921 17.7146 8.28366Z" stroke="currentColor" stroke-width="1.2" stroke-linecap="round" stroke-linejoin="round"/>
<path d="M17.5085 6.19882L5.69881 18.0085C3.3995 17.4815 2.43701 15.8926 2.43701 12.8676V8.28423C2.43701 4.46479 3.96479 2.93701 7.78423 2.93701H12.3676C15.3926 2.93701 16.9815 3.89951 17.5085 6.19882Z" stroke="currentColor" stroke-width="1.2" stroke-linecap="round" stroke-linejoin="round"/>
<path d="M16.4767 16.9771C15.6135 17.8327 14.2767 18.2146 12.367 18.2146H7.78367C6.98922 18.2146 6.30171 18.1459 5.69824 18.0084L11.6031 12.1035L16.4767 16.9771Z" stroke="currentColor" stroke-width="1.2" stroke-linecap="round" stroke-linejoin="round"/>
<path d="M5.67527 7.50384C6.19472 5.26565 9.55584 5.26565 10.0753 7.50384C10.3732 8.81773 9.54819 9.93301 8.82249 10.6205C8.29541 11.1247 7.46279 11.1247 6.92806 10.6205C6.20237 9.93301 5.36972 8.81773 5.67527 7.50384Z" stroke="currentColor" stroke-width="1.2"/>
<path d="M7.85626 8.05431H7.86313" stroke="currentColor" stroke-width="1.2" stroke-linecap="round" stroke-linejoin="round"/>
</svg>
