<svg width="20" height="21" viewBox="0 0 20 21" fill="none" color="white" xmlns="http://www.w3.org/2000/svg">
<path opacity="0.4" d="M18.3346 5.70768V9.95766C18.3346 11.016 17.9846 11.9077 17.3596 12.5243C16.743 13.1493 15.8513 13.4993 14.793 13.4993V15.0077C14.793 15.5743 14.1596 15.916 13.693 15.5993L12.8846 15.066C12.9596 14.8077 12.993 14.5243 12.993 14.2243V10.8327C12.993 9.1327 11.8596 7.99935 10.1596 7.99935H4.5013C4.38463 7.99935 4.2763 8.0077 4.16797 8.01603V5.70768C4.16797 3.58268 5.58464 2.16602 7.70964 2.16602H14.793C16.918 2.16602 18.3346 3.58268 18.3346 5.70768Z" stroke="currentColor" stroke-width="1.5" stroke-miterlimit="10" stroke-linecap="round" stroke-linejoin="round"/>
<path d="M12.993 10.8334V14.225C12.993 14.525 12.9596 14.8083 12.8846 15.0667C12.5763 16.2917 11.5596 17.0583 10.1596 17.0583H7.89297L5.3763 18.7333C5.0013 18.9917 4.5013 18.7167 4.5013 18.2667V17.0583C3.6513 17.0583 2.94297 16.775 2.4513 16.2833C1.9513 15.7833 1.66797 15.075 1.66797 14.225V10.8334C1.66797 9.25002 2.6513 8.15835 4.16797 8.01668C4.2763 8.00835 4.38463 8 4.5013 8H10.1596C11.8596 8 12.993 9.13335 12.993 10.8334Z" stroke="currentColor" stroke-width="1.5" stroke-miterlimit="10" stroke-linecap="round" stroke-linejoin="round"/>
</svg>
