<svg width="52" height="52" viewBox="0 0 52 52" fill="none" xmlns="http://www.w3.org/2000/svg">
<g clip-path="url(#clip0_1259_6389)">
<rect width="52" height="52" rx="26" fill="white"/>
<path d="M52 26C52 11.6406 40.3594 0 26 0C11.6406 0 0 11.6406 0 26C0 40.3594 11.6406 52 26 52C40.3594 52 52 40.3594 52 26Z" fill="black"/>
<path d="M33.1197 23.1204C32.7297 23.1204 32.4197 23.4304 32.4197 23.8204V25.4004C32.4197 28.9404 29.5397 31.8204 25.9997 31.8204C22.4597 31.8204 19.5797 28.9404 19.5797 25.4004V23.8104C19.5797 23.4204 19.2697 23.1104 18.8797 23.1104C18.4897 23.1104 18.1797 23.4204 18.1797 23.8104V25.3904C18.1797 29.4604 21.3097 32.8104 25.2997 33.1704V35.3004C25.2997 35.6904 25.6097 36.0004 25.9997 36.0004C26.3897 36.0004 26.6997 35.6904 26.6997 35.3004V33.1704C30.6797 32.8204 33.8197 29.4604 33.8197 25.3904V23.8104C33.8097 23.4304 33.4997 23.1204 33.1197 23.1204Z" fill="white"/>
<path d="M26.0011 16C23.5611 16 21.5811 17.98 21.5811 20.42V25.54C21.5811 27.98 23.5611 29.96 26.0011 29.96C28.4411 29.96 30.4211 27.98 30.4211 25.54V20.42C30.4211 17.98 28.4411 16 26.0011 16ZM27.3111 22.95C27.2411 23.21 27.0111 23.38 26.7511 23.38C26.7011 23.38 26.6511 23.37 26.6011 23.36C26.2111 23.25 25.8011 23.25 25.4111 23.36C25.0911 23.45 24.7811 23.26 24.7011 22.95C24.6111 22.64 24.8011 22.32 25.1111 22.24C25.7011 22.08 26.3211 22.08 26.9111 22.24C27.2111 22.32 27.3911 22.64 27.3111 22.95ZM27.8411 21.01C27.7511 21.25 27.5311 21.39 27.2911 21.39C27.2211 21.39 27.1611 21.38 27.0911 21.36C26.3911 21.1 25.6111 21.1 24.9111 21.36C24.6111 21.47 24.2711 21.31 24.1611 21.01C24.0511 20.71 24.2111 20.37 24.5111 20.27C25.4711 19.92 26.5311 19.92 27.4911 20.27C27.7911 20.38 27.9511 20.71 27.8411 21.01Z" fill="white"/>
</g>
<defs>
<clipPath id="clip0_1259_6389">
<rect width="52" height="52" rx="26" fill="white"/>
</clipPath>
</defs>
</svg>
