<svg width="64" height="64" viewBox="0 0 64 64" fill="none" xmlns="http://www.w3.org/2000/svg">
<g filter="url(#filter0_di_798_8599)">
<rect x="2" y="4" width="52" height="52" rx="26" fill="black"/>
</g>
<path d="M33.9334 27.5999C33.6084 27.5999 33.3501 27.8582 33.3501 28.1832V29.4999C33.3501 32.4499 30.9501 34.8499 28.0001 34.8499C25.0501 34.8499 22.6501 32.4499 22.6501 29.4999V28.1749C22.6501 27.8499 22.3917 27.5916 22.0667 27.5916C21.7417 27.5916 21.4834 27.8499 21.4834 28.1749V29.4916C21.4834 32.8832 24.0917 35.6749 27.4167 35.9749V37.7499C27.4167 38.0749 27.6751 38.3332 28.0001 38.3332C28.3251 38.3332 28.5834 38.0749 28.5834 37.7499V35.9749C31.9001 35.6832 34.5167 32.8832 34.5167 29.4916V28.1749C34.5084 27.8582 34.2501 27.5999 33.9334 27.5999Z" fill="white"/>
<path d="M28.0007 21.6666C25.9674 21.6666 24.3174 23.3166 24.3174 25.35V29.6166C24.3174 31.65 25.9674 33.3 28.0007 33.3C30.034 33.3 31.684 31.65 31.684 29.6166V25.35C31.684 23.3166 30.034 21.6666 28.0007 21.6666ZM29.0924 27.4583C29.034 27.675 28.8424 27.8166 28.6257 27.8166C28.584 27.8166 28.5424 27.8083 28.5007 27.8C28.1757 27.7083 27.834 27.7083 27.509 27.8C27.2424 27.875 26.984 27.7166 26.9174 27.4583C26.8424 27.2 27.0007 26.9333 27.259 26.8666C27.7507 26.7333 28.2674 26.7333 28.759 26.8666C29.009 26.9333 29.159 27.2 29.0924 27.4583ZM29.534 25.8416C29.459 26.0416 29.2757 26.1583 29.0757 26.1583C29.0174 26.1583 28.9674 26.15 28.909 26.1333C28.3257 25.9166 27.6757 25.9166 27.0924 26.1333C26.8424 26.225 26.559 26.0916 26.4674 25.8416C26.3757 25.5916 26.509 25.3083 26.759 25.225C27.559 24.9333 28.4424 24.9333 29.2424 25.225C29.4924 25.3166 29.6257 25.5916 29.534 25.8416Z" fill="white"/>
<defs>
<filter id="filter0_di_798_8599" x="0" y="0" width="64" height="64" filterUnits="userSpaceOnUse" color-interpolation-filters="sRGB">
<feFlood flood-opacity="0" result="BackgroundImageFix"/>
<feColorMatrix in="SourceAlpha" type="matrix" values="0 0 0 0 0 0 0 0 0 0 0 0 0 0 0 0 0 0 127 0" result="hardAlpha"/>
<feOffset dx="4" dy="2"/>
<feGaussianBlur stdDeviation="3"/>
<feColorMatrix type="matrix" values="0 0 0 0 0.282353 0 0 0 0 0.392157 0 0 0 0 0.490196 0 0 0 0.17 0"/>
<feBlend mode="normal" in2="BackgroundImageFix" result="effect1_dropShadow_798_8599"/>
<feBlend mode="normal" in="SourceGraphic" in2="effect1_dropShadow_798_8599" result="shape"/>
<feColorMatrix in="SourceAlpha" type="matrix" values="0 0 0 0 0 0 0 0 0 0 0 0 0 0 0 0 0 0 127 0" result="hardAlpha"/>
<feOffset dx="-2" dy="-2"/>
<feGaussianBlur stdDeviation="3"/>
<feComposite in2="hardAlpha" operator="arithmetic" k2="-1" k3="1"/>
<feColorMatrix type="matrix" values="0 0 0 0 0.282353 0 0 0 0 0.392157 0 0 0 0 0.490196 0 0 0 0.12 0"/>
<feBlend mode="normal" in2="shape" result="effect2_innerShadow_798_8599"/>
</filter>
</defs>
</svg>
