<svg width="22" height="22" viewBox="0 0 22 22" fill="none" xmlns="http://www.w3.org/2000/svg">
<path d="M9.1665 17.4167C9.1665 18.425 9.9915 19.25 10.9998 19.25C12.0082 19.25 12.8332 18.425 12.8332 17.4167C12.8332 16.4083 12.0082 15.5833 10.9998 15.5833C9.9915 15.5833 9.1665 16.4083 9.1665 17.4167Z" stroke="#292D32" stroke-width="1.2"/>
<path d="M9.16699 4.58366C9.16699 5.59199 9.99199 6.41699 11.0003 6.41699C12.0087 6.41699 12.8337 5.59199 12.8337 4.58366C12.8337 3.57533 12.0087 2.75033 11.0003 2.75033C9.99199 2.75033 9.16699 3.57533 9.16699 4.58366Z" stroke="#292D32" stroke-width="1.2"/>
<path d="M9.16699 10.9997C9.16699 12.008 9.99199 12.833 11.0003 12.833C12.0087 12.833 12.8337 12.008 12.8337 10.9997C12.8337 9.99134 12.0087 9.16634 11.0003 9.16634C9.99199 9.16634 9.16699 9.99134 9.16699 10.9997Z" stroke="#292D32" stroke-width="1.2"/>
</svg>
