<svg width="20" height="20" viewBox="0 0 20 20" fill="none" xmlns="http://www.w3.org/2000/svg">
<path d="M5.41667 18.3333C7.0275 18.3333 8.33333 17.0275 8.33333 15.4167C8.33333 13.8058 7.0275 12.5 5.41667 12.5C3.80584 12.5 2.5 13.8058 2.5 15.4167C2.5 17.0275 3.80584 18.3333 5.41667 18.3333Z" stroke="currentColor" stroke-width="1.5"/>
<path d="M15 15.833C16.3807 15.833 17.5 14.7137 17.5 13.333C17.5 11.9523 16.3807 10.833 15 10.833C13.6193 10.833 12.5 11.9523 12.5 13.333C12.5 14.7137 13.6193 15.833 15 15.833Z" stroke="currentColor" stroke-width="1.5"/>
<path d="M8.33325 15.4167V5.83338C8.33325 5.06383 8.33325 4.67907 8.55284 4.43999C8.77234 4.20093 9.18117 4.16604 9.99875 4.09628C13.3516 3.81023 15.7574 2.71675 16.9627 2.00819C17.2089 1.86338 17.3321 1.79098 17.416 1.83898C17.4999 1.88698 17.4999 2.02629 17.4999 2.30493V13.3334" stroke="currentColor" stroke-width="1.5" stroke-linecap="round" stroke-linejoin="round"/>
<path d="M8.33325 8.33301C13.2222 8.33301 16.4814 6.38857 17.4999 5.83301" stroke="currentColor" stroke-width="1.5" stroke-linecap="round" stroke-linejoin="round"/>
</svg>
