<svg width="20" height="21" viewBox="0 0 20 21" fill="none" xmlns="http://www.w3.org/2000/svg">
<path opacity="0.4" d="M10 5.8667V8.6417" stroke="white" stroke-width="1.5" stroke-miterlimit="10" stroke-linecap="round"/>
<path d="M10.0166 2.1665C6.94992 2.1665 4.46658 4.64984 4.46658 7.7165V9.4665C4.46658 10.0332 4.23325 10.8832 3.94158 11.3665L2.88325 13.1332C2.23325 14.2248 2.68325 15.4415 3.88325 15.8415C7.86658 17.1665 12.1749 17.1665 16.1582 15.8415C17.2832 15.4665 17.7666 14.1498 17.1582 13.1332L16.0999 11.3665C15.8082 10.8832 15.5749 10.0248 15.5749 9.4665V7.7165C15.5666 4.6665 13.0666 2.1665 10.0166 2.1665Z" stroke="white" stroke-width="1.5" stroke-miterlimit="10" stroke-linecap="round"/>
<path opacity="0.4" d="M12.7751 16.1836C12.7751 17.7086 11.5251 18.9586 10.0001 18.9586C9.24176 18.9586 8.54176 18.6419 8.04176 18.1419C7.54176 17.6419 7.2251 16.9419 7.2251 16.1836" stroke="white" stroke-width="1.5" stroke-miterlimit="10"/>
</svg>
