<svg width="20" height="20" viewBox="0 0 20 20" fill="none" xmlns="http://www.w3.org/2000/svg">
<path d="M5.41675 14.583V12.083M9.58341 14.583V7.08301M13.7501 14.583V11.2497" stroke="currentColor" stroke-width="1.5" stroke-linecap="round"/>
<path d="M17.9167 4.58301C17.9167 5.96372 16.7975 7.08301 15.4167 7.08301C14.036 7.08301 12.9167 5.96372 12.9167 4.58301C12.9167 3.2023 14.036 2.08301 15.4167 2.08301C16.7975 2.08301 17.9167 3.2023 17.9167 4.58301Z" stroke="currentColor" stroke-width="1.5"/>
<path d="M17.9128 9.16634C17.9128 9.16634 17.9166 9.44926 17.9166 9.99967C17.9166 13.7317 17.9166 15.5976 16.7573 16.757C15.5978 17.9163 13.7318 17.9163 9.99992 17.9163C6.26797 17.9163 4.40199 17.9163 3.24262 16.757C2.08325 15.5976 2.08325 13.7317 2.08325 9.99967C2.08325 6.26775 2.08325 4.40177 3.24262 3.2424C4.40199 2.08303 6.26797 2.08303 9.99992 2.08303L10.8333 2.08301" stroke="currentColor" stroke-width="1.5" stroke-linecap="round" stroke-linejoin="round"/>
</svg>
