<svg width="14" height="14" viewBox="0 0 14 14" fill="none" xmlns="http://www.w3.org/2000/svg">
<path d="M9.3335 9.625L11.6668 11.9583" stroke="black" stroke-linecap="round" stroke-linejoin="round"/>
<path d="M10.5002 6.70832C10.5002 8.96348 8.672 10.7916 6.41683 10.7916C4.16167 10.7916 2.3335 8.96348 2.3335 6.70832C2.3335 4.45317 4.16167 2.625 6.41683 2.625" stroke="black" stroke-linecap="round" stroke-linejoin="round"/>
<path d="M9.04167 2.04297L9.19211 2.44957C9.38939 2.98273 9.48803 3.24931 9.68252 3.44378C9.877 3.63825 10.1436 3.73689 10.6767 3.93418L11.0833 4.08464L10.6767 4.23509C10.1436 4.43238 9.877 4.53103 9.68252 4.72549C9.48803 4.91996 9.38939 5.18654 9.19211 5.7197L9.04167 6.12628L8.89122 5.7197C8.69394 5.18654 8.5953 4.91996 8.40082 4.72549C8.20633 4.53103 7.93975 4.43238 7.40658 4.23509L7 4.08464L7.40658 3.93418C7.93975 3.73689 8.20633 3.63825 8.40082 3.44378C8.5953 3.24931 8.69394 2.98273 8.89122 2.44957L9.04167 2.04297Z" stroke="black" stroke-linecap="round" stroke-linejoin="round"/>
</svg>
