<svg width="20" height="20" viewBox="0 0 20 20" fill="none" xmlns="http://www.w3.org/2000/svg">
<path d="M10 0.671875C15.084 0.671875 19.2031 4.79102 19.2031 9.875C19.2031 14.959 15.084 19.0781 10 19.0781C4.91602 19.0781 0.796875 14.959 0.796875 9.875C0.796875 4.79102 4.91602 0.671875 10 0.671875ZM10 17.2969C14.082 17.2969 17.4219 13.9941 17.4219 9.875C17.4219 5.79297 14.082 2.45312 10 2.45312C5.88086 2.45312 2.57812 5.79297 2.57812 9.875C2.57812 13.9941 5.88086 17.2969 10 17.2969ZM13.8965 11.6934C14.2676 11.582 14.6016 11.916 14.5645 12.25C14.2676 13.9941 11.9297 15.2188 10 15.2188C8.07031 15.2188 5.69531 13.9941 5.39844 12.25C5.36133 11.8789 5.69531 11.582 6.06641 11.6934C7.03125 11.9902 8.44141 12.1758 10 12.1758C11.5215 12.1758 12.9316 11.9902 13.8965 11.6934ZM7.03125 9.28125C6.36328 9.28125 5.84375 8.76172 5.84375 8.09375C5.84375 7.46289 6.36328 6.90625 7.03125 6.90625C7.66211 6.90625 8.21875 7.46289 8.21875 8.09375C8.21875 8.76172 7.66211 9.28125 7.03125 9.28125ZM12.9688 9.28125C12.3008 9.28125 11.7812 8.76172 11.7812 8.09375C11.7812 7.46289 12.3008 6.90625 12.9688 6.90625C13.5996 6.90625 14.1562 7.46289 14.1562 8.09375C14.1562 8.76172 13.5996 9.28125 12.9688 9.28125Z" fill="#495057"/>
</svg>
