<svg width="16" height="19" viewBox="0 0 16 19" fill="none" xmlns="http://www.w3.org/2000/svg">
<path d="M6.25 4.5L6.61843 5.49576C7.10157 6.80147 7.34314 7.45433 7.81943 7.93057C8.29572 8.40683 8.94857 8.6484 10.2543 9.13156L11.25 9.50002L10.2543 9.86848C8.94857 10.3516 8.29572 10.5932 7.81943 11.0695C7.34314 11.5457 7.10157 12.1986 6.61843 13.5043L6.25 14.5L5.88157 13.5043C5.39843 12.1986 5.15686 11.5457 4.68057 11.0695C4.20429 10.5932 3.55143 10.3516 2.24571 9.86848L1.25 9.50002L2.24571 9.13156C3.55143 8.6484 4.20429 8.40683 4.68057 7.93057C5.15686 7.45433 5.39843 6.80147 5.88157 5.49576L6.25 4.5Z" stroke="white" stroke-width="1.5" stroke-linecap="round" stroke-linejoin="round"/>
<path d="M12.25 1.5L12.4342 1.99788C12.6758 2.65073 12.7966 2.97716 13.0347 3.21529C13.2729 3.45342 13.5993 3.5742 14.2521 3.81578L14.75 4.00001L14.2521 4.18424C13.5993 4.42582 13.2729 4.54661 13.0347 4.78474C12.7966 5.02286 12.6758 5.34929 12.4342 6.00214L12.25 6.5L12.0658 6.00214C11.8242 5.34929 11.7034 5.02286 11.4653 4.78474C11.2271 4.54661 10.9007 4.42582 10.2479 4.18424L9.75 4.00001L10.2479 3.81578C10.9007 3.5742 11.2271 3.45342 11.4653 3.21529C11.7034 2.97716 11.8242 2.65073 12.0658 1.99788L12.25 1.5Z" stroke="white" stroke-width="1.5" stroke-linecap="round" stroke-linejoin="round"/>
<path d="M12.25 12.5L12.4342 12.9979C12.6758 13.6507 12.7966 13.9772 13.0347 14.2153C13.2729 14.4534 13.5993 14.5742 14.2521 14.8158L14.75 15L14.2521 15.1842C13.5993 15.4258 13.2729 15.5466 13.0347 15.7847C12.7966 16.0229 12.6758 16.3493 12.4342 17.0021L12.25 17.5L12.0658 17.0021C11.8242 16.3493 11.7034 16.0229 11.4653 15.7847C11.2271 15.5466 10.9007 15.4258 10.2479 15.1842L9.75 15L10.2479 14.8158C10.9007 14.5742 11.2271 14.4534 11.4653 14.2153C11.7034 13.9772 11.8242 13.6507 12.0658 12.9979L12.25 12.5Z" stroke="white" stroke-width="1.5" stroke-linecap="round" stroke-linejoin="round"/>
</svg>
