<svg width="52" height="52" viewBox="0 0 52 52" fill="none" xmlns="http://www.w3.org/2000/svg">
<g clip-path="url(#clip0_1192_4678)">
<rect width="52" height="52" rx="26" fill="#FF0404"/>
<path d="M18.667 21.417C18.667 20.1206 18.667 19.4724 19.0697 19.0697C19.4724 18.667 20.1206 18.667 21.417 18.667C22.7134 18.667 23.3615 18.667 23.7643 19.0697C24.167 19.4724 24.167 20.1206 24.167 21.417V30.5837C24.167 31.88 24.167 32.5282 23.7643 32.931C23.3615 33.3337 22.7134 33.3337 21.417 33.3337C20.1206 33.3337 19.4724 33.3337 19.0697 32.931C18.667 32.5282 18.667 31.88 18.667 30.5837V21.417Z" fill="white"/>
<path d="M27.833 21.417C27.833 20.1206 27.833 19.4724 28.2357 19.0697C28.6385 18.667 29.2867 18.667 30.583 18.667C31.8794 18.667 32.5275 18.667 32.9303 19.0697C33.333 19.4724 33.333 20.1206 33.333 21.417V30.5837C33.333 31.88 33.333 32.5282 32.9303 32.931C32.5275 33.3337 31.8794 33.3337 30.583 33.3337C29.2867 33.3337 28.6385 33.3337 28.2357 32.931C27.833 32.5282 27.833 31.88 27.833 30.5837V21.417Z" fill="white"/>
</g>
<defs>
<clipPath id="clip0_1192_4678">
<rect width="52" height="52" fill="white"/>
</clipPath>
</defs>
</svg>
