<svg width="15" height="14" viewBox="0 0 15 14" fill="none" xmlns="http://www.w3.org/2000/svg">
<path d="M10.4165 9.04297V7.8763L11.9332 5.85406C12.0801 5.65823 12.3106 5.54297 12.5554 5.54297C12.9849 5.54297 13.3332 5.89122 13.3332 6.32073V10.5985C13.3332 11.0281 12.9849 11.3763 12.5554 11.3763C12.3106 11.3763 12.0801 11.261 11.9332 11.0652L10.4165 9.04297Z" stroke="black" stroke-linecap="round" stroke-linejoin="round"/>
<path d="M6.60728 3.51462C6.61124 3.49513 6.63907 3.49513 6.64309 3.51462C6.84988 4.52633 7.64048 5.31697 8.65221 5.52376C8.67169 5.52774 8.67169 5.55559 8.65221 5.55957C7.64048 5.76636 6.84988 6.55702 6.64309 7.56869C6.63907 7.58823 6.61124 7.58823 6.60728 7.56869C6.40048 6.55702 5.60982 5.76636 4.59811 5.55957C4.57862 5.55559 4.57862 5.52774 4.59811 5.52376C5.60982 5.31697 6.40048 4.52633 6.60728 3.51462Z" stroke="black" stroke-linecap="round" stroke-linejoin="round"/>
<path d="M3.73832 4.08203C3.21202 4.15072 2.82963 4.28293 2.51959 4.53738C2.40144 4.63434 2.29311 4.74267 2.19615 4.86082C1.6665 5.50619 1.6665 6.46512 1.6665 8.38283C1.6665 10.3005 1.66653 11.334 2.19617 11.9793C2.29313 12.0974 2.40147 12.2058 2.51961 12.3028C3.16498 12.8324 4.12384 12.8324 6.04153 12.8324C7.95921 12.8324 8.9181 12.8324 9.56344 12.3028C9.68162 12.2058 9.78995 12.0974 9.8869 11.9793C10.4165 11.334 10.4165 10.3751 10.4165 8.45738C10.4165 7.18454 10.4165 6.33404 10.2616 5.7173" stroke="black" stroke-linecap="round" stroke-linejoin="round"/>
<path d="M9.32056 1.34861C9.36979 1.10776 9.7139 1.10776 9.76313 1.34861C9.87186 1.88056 10.2876 2.29627 10.8195 2.405C11.0604 2.45423 11.0604 2.79837 10.8195 2.8476C10.2876 2.95633 9.87186 3.37204 9.76313 3.90399C9.7139 4.14485 9.36979 4.14485 9.32056 3.90399C9.21182 3.37204 8.79614 2.95633 8.26414 2.8476C8.02328 2.79837 8.02328 2.45423 8.26414 2.405C8.79614 2.29627 9.21182 1.88056 9.32056 1.34861Z" fill="black"/>
</svg>
