<svg width="40" height="40" viewBox="0 0 40 40" fill="none" xmlns="http://www.w3.org/2000/svg">
<path d="M15.1305 25L12.1737 29.473C11.7779 30.0718 11.58 30.3712 11.7026 30.6022C11.8252 30.8333 12.182 30.8333 12.8956 30.8333H15.4374C16.151 30.8333 16.5078 30.8333 16.6304 31.0643C16.753 31.2955 16.5551 31.5948 16.1593 32.1937L13.2025 36.6667" stroke="black" stroke-width="2" stroke-linecap="round" stroke-linejoin="round"/>
<path d="M26.6667 33.332L25 36.6654" stroke="black" stroke-width="2" stroke-linecap="round" stroke-linejoin="round"/>
<path d="M21.6667 33.332L20 36.6654" stroke="black" stroke-width="2" stroke-linecap="round" stroke-linejoin="round"/>
<path d="M29.1295 18.1667C29.1418 18.1665 29.1543 18.1665 29.1668 18.1665C33.309 18.1665 36.6668 21.4689 36.6668 25.5425C36.6668 28.754 34.5798 31.4862 31.6668 32.4987M29.1295 18.1667C29.1542 17.8967 29.1668 17.6234 29.1668 17.347C29.1668 12.3682 25.0628 8.33203 20.0002 8.33203C15.2056 8.33203 11.2707 11.9522 10.8675 16.5647M29.1295 18.1667C28.959 20.0262 28.2145 21.7227 27.0715 23.0839M10.8675 16.5647C6.64013 16.9604 3.3335 20.4619 3.3335 24.7229C3.3335 27.4042 4.64275 29.7847 6.66683 31.2799M10.8675 16.5647C11.1306 16.5401 11.3972 16.5275 11.6668 16.5275C13.5432 16.5275 15.2747 17.1374 16.6677 18.1665" stroke="black" stroke-width="2" stroke-linecap="round" stroke-linejoin="round"/>
<path d="M16.6668 8.57935C16.5277 7.86071 16.271 7.15271 15.8894 6.48306C14.9769 4.88206 13.5202 3.79791 11.8927 3.33203C12.1442 5.38253 11.1925 7.48123 9.31512 8.57935C7.43768 9.67745 5.16778 9.46303 3.54067 8.21713C3.12518 9.87796 3.3236 11.6981 4.23602 13.2991C5.3469 15.2484 7.26465 16.4314 9.31512 16.6654" stroke="black" stroke-width="2" stroke-linejoin="round"/>
</svg>
