<svg width="142" height="142" viewBox="0 0 142 142" fill="none" xmlns="http://www.w3.org/2000/svg">
<rect x="1" y="1" width="140" height="140" rx="34" fill="white" stroke="black" stroke-width="2"/>
<path fill-rule="evenodd" clip-rule="evenodd" d="M118.89 73.0246C118.759 76.3017 118.125 79.4971 117.295 82.6604C117.229 82.9135 117.187 83.1728 117.132 83.429C116.538 85.0992 116.042 86.8059 115.321 88.4313C114.893 89.3933 114.471 90.3577 114.029 91.314C113.889 91.6213 113.803 91.9146 113.858 92.261C114.387 95.6093 114.904 98.9603 115.428 102.309C115.448 102.436 115.506 102.558 115.546 102.682C115.882 104.933 116.212 107.184 116.554 109.434C117.073 112.835 117.594 116.237 118.135 119.635C118.197 120.022 118.091 120.028 117.77 119.978C115.282 119.594 112.792 119.229 110.304 118.849C106.396 118.254 102.491 117.652 98.5843 117.052C95.2891 116.545 91.9935 116.042 88.6995 115.524C88.4 115.478 88.1399 115.503 87.8638 115.615C83.8757 117.243 79.739 118.343 75.463 118.861C65.9807 120.01 56.8662 118.684 48.1591 114.729C41.9973 111.93 36.6392 108.031 32.0864 103.065C25.7414 96.146 21.6729 88.0776 19.8993 78.8794C19.245 75.4851 18.9872 72.0556 19.0005 68.6036C19.0024 68.145 19.0438 67.6864 19.0664 67.2278C19.229 65.0715 19.3608 62.9105 19.7867 60.7843C20.1302 59.068 20.5018 57.3548 21.024 55.6826C21.9123 52.8374 22.895 50.0255 24.2728 47.3672C24.4642 46.9984 24.6545 46.6292 24.846 46.2604C25.608 45.0065 26.3341 43.7294 27.139 42.5034C28.3182 40.707 29.5989 38.981 31.0316 37.3711C31.1166 37.2759 31.163 37.147 31.2273 37.0336C31.8669 36.5193 32.3516 35.8583 32.9186 35.2763C35.2455 32.8901 37.7701 30.7307 40.5229 28.8406C44.0637 26.4091 47.8413 24.4277 51.9 22.9853C52.1036 22.9126 52.341 22.8909 52.4526 22.661C53.7691 22.4699 54.9955 21.9501 56.2754 21.6208C58.7337 20.9884 61.2201 20.5391 63.7447 20.2806C65.2371 20.1281 66.731 20.0484 68.2312 20.0132C73.0527 19.9002 77.7806 20.5144 82.4215 21.7864C87.0738 23.0616 91.4448 24.9873 95.541 27.5213C98.2442 29.1935 100.742 31.1265 103.085 33.2724C108.156 37.9175 112.018 43.4063 114.837 49.6392C114.845 49.6578 114.868 49.6694 114.885 49.6841C115.97 52.2538 116.928 54.8668 117.569 57.5854C118.216 60.3354 118.701 63.1059 118.906 65.9317C119.062 68.1059 118.972 70.2742 118.992 72.4449C118.994 72.6388 118.926 72.8319 118.89 73.0246ZM110.536 74.4785C110.616 73.8528 110.736 73.2293 110.769 72.6016C110.86 70.8303 110.937 69.0641 110.804 67.2831C110.653 65.2487 110.412 63.2328 110.012 61.2371C109.433 58.3455 108.508 55.5576 107.304 52.8614C107.011 52.2232 106.754 51.5653 106.418 50.95C105.131 48.5986 103.76 46.3076 102.063 44.2078C100.429 42.1846 98.6864 40.2829 96.73 38.5607C93.7523 35.9388 90.4719 33.798 86.8846 32.0859C81.5277 29.529 75.8557 28.3278 69.9533 28.0732C68.0534 27.9915 66.1531 28.1382 64.2735 28.3595C61.0481 28.7392 57.8766 29.4176 54.8259 30.5604C53.3819 31.101 51.9211 31.6099 50.5897 32.4079C49.1773 32.9895 47.8826 33.7856 46.5973 34.5921C42.8782 36.9257 39.6182 39.7863 36.8116 43.1459C36.0714 44.0321 35.2876 44.9001 34.7674 45.95C34.6493 46.0797 34.5143 46.1981 34.4153 46.3405C32.9923 48.3842 31.7741 50.5452 30.7625 52.8145C30.1928 54.0928 29.5989 55.3699 29.3122 56.7538C29.0163 57.2054 28.941 57.7348 28.7998 58.2375C27.8748 61.5351 27.2575 64.8803 27.2076 68.316C27.1737 70.6833 27.2544 73.0397 27.5878 75.3903C27.9322 77.8199 28.4555 80.201 29.2857 82.513C29.3298 82.6828 29.3625 82.8566 29.4203 83.0215C31.9554 90.259 36.1206 96.4216 42.0468 101.324C50.7422 108.516 60.7755 111.767 72.1043 111.019C76.6111 110.721 80.9268 109.672 85.0721 107.919C86.2034 107.44 87.2867 106.877 88.5814 107.29C89.0376 107.436 89.5294 107.48 90.0078 107.552C93.0753 108.011 96.1455 108.453 99.2113 108.924C102.123 109.371 105.03 109.848 107.939 110.309C108.284 110.363 108.383 110.29 108.313 109.882C107.991 108.017 107.727 106.142 107.442 104.271C107.297 103.233 107.165 102.193 107.002 101.158C106.457 97.6828 105.899 94.2087 105.349 90.7339C105.313 90.5149 105.341 90.3113 105.448 90.1004C105.905 89.2037 106.343 88.2958 106.787 87.3918C107.146 86.9607 107.313 86.4309 107.525 85.9282C109.069 82.2525 110.168 78.4599 110.536 74.4785Z" fill="#1F1F1F"/>
<path fill-rule="evenodd" clip-rule="evenodd" d="M94.323 76.7166C92.9277 80.2533 90.8742 83.3578 88.0766 85.9553C87.2272 86.7436 86.2909 87.4395 85.3944 88.1778C83.5476 89.3497 81.6566 90.4321 79.575 91.1593C77.3745 91.9274 75.1224 92.3887 72.792 92.5668C69.6177 92.8082 66.4992 92.5041 63.5269 91.439C61.8333 90.8322 60.2957 91.3156 58.7129 91.5339C54.7805 92.0768 50.8621 92.7219 46.9383 93.3268C46.6985 93.364 46.4599 93.4077 46.2208 93.4479C46.1686 92.1708 46.47 90.9286 46.6927 89.6922C47.0581 87.667 47.3271 85.6279 47.6719 83.6005C47.9503 81.9631 48.2038 80.3211 48.3808 78.6678C48.4081 78.4128 48.405 78.1906 48.3071 77.9763C47.604 76.4372 47.0815 74.8412 46.7336 73.1876C46.7118 73.0842 46.6412 72.991 46.5932 72.8931C46.6993 71.9651 46.4014 71.0738 46.3148 70.164C46.0742 67.6342 46.321 65.1516 46.787 62.6729C46.9606 61.7488 47.225 60.8536 47.5362 59.9698C48.465 57.5181 49.6509 55.2051 51.258 53.1145C53.4148 50.3088 56.0401 48.0484 59.1574 46.3452C59.832 45.9764 60.5215 45.644 61.2219 45.3305C63.5878 44.3951 66.009 43.7152 68.5645 43.4725C71.9501 43.1509 75.2644 43.4412 78.4956 44.4516C81.5981 45.4218 84.4184 46.94 86.9297 49.0162C89.1236 50.8297 90.9167 52.9756 92.4445 55.3541C93.756 57.628 94.7395 60.0286 95.3069 62.594C96.2697 66.9372 96.0794 71.2274 94.7375 75.4689C94.6053 75.8872 94.4614 76.301 94.323 76.7166ZM86.4945 73.5568C86.5729 73.4016 86.6735 73.2534 86.7269 73.0897C87.6449 70.2754 87.8017 67.414 87.1652 64.5282C86.3416 60.794 84.4055 57.7163 81.4227 55.3053C78.7409 53.1377 75.6536 51.9071 72.2059 51.6846C68.9599 51.4752 65.8753 52.1176 63.0278 53.7356C59.4304 55.7798 56.9011 58.7128 55.5315 62.611C54.9357 64.1152 54.6764 65.6961 54.6054 67.2929C54.4658 70.4329 55.1798 73.388 56.788 76.1109C57.0575 76.5676 57.1752 77.032 57.0926 77.5556C56.818 79.2855 56.5525 81.0165 56.2822 82.7471C56.1707 83.4619 56.2331 83.5351 56.9795 83.4209C58.505 83.1871 60.0297 82.9476 61.5522 82.6914C62.5629 82.5215 63.4903 82.5025 64.5007 82.9631C67.2893 84.234 70.2604 84.6891 73.3005 84.1964C77.4213 83.5273 80.9157 81.6601 83.6677 78.5002C84.9409 77.0393 85.832 75.3621 86.4945 73.5568Z" fill="#1F1F1F"/>
</svg>
