<svg width="24" height="24" viewBox="0 0 24 24" fill="none" xmlns="http://www.w3.org/2000/svg">
  <path d="M12.22 2H11.78C11.6609 2.0003 11.5429 2.02534 11.4332 2.07358C11.3235 2.12182 11.2246 2.19225 11.1424 2.28055C11.0602 2.36885 10.9966 2.47317 10.9554 2.58711C10.9142 2.70105 10.8963 2.82218 10.903 2.943L11.043 5.253C11.0772 5.86901 10.8872 6.47648 10.5197 6.92484C10.1521 7.3732 9.64069 7.62141 9.10999 7.609C6.79999 7.559 5.83999 4.679 5.83999 4.679C5.79586 4.58071 5.7288 4.49509 5.64416 4.42903C5.55953 4.36297 5.45959 4.31828 5.35233 4.29853C5.24507 4.27878 5.13348 4.28453 5.02657 4.3153C4.91966 4.34607 4.82046 4.401 4.73699 4.476L3.35699 5.716C2.95699 6.076 2.93699 6.706 3.30699 7.096L5.05699 8.946C5.46247 9.39088 5.66699 9.98394 5.63102 10.584C5.59505 11.1841 5.32168 11.7408 4.86699 12.146C3.08699 13.736 5.06699 16.326 5.06699 16.326C5.12781 16.413 5.21146 16.4807 5.30896 16.5218C5.40645 16.5629 5.51408 16.5759 5.61999 16.559L8.43999 16.129C9.05202 16.0366 9.67389 16.2023 10.1517 16.5855C10.6294 16.9687 10.9192 17.5348 10.95 18.146L11.08 20.956C11.11 21.506 11.56 21.936 12.11 21.936H13.89C14.43 21.936 14.88 21.516 14.91 20.966L15.01 18.576C15.0538 17.9622 15.3582 17.394 15.849 17.0253C16.3397 16.6567 16.9723 16.5215 17.579 16.666L19.869 17.216C19.9726 17.24 20.081 17.2366 20.1834 17.2062C20.2858 17.1758 20.3787 17.1194 20.453 17.0425C20.5273 16.9655 20.5804 16.8706 20.6071 16.7671C20.6338 16.6636 20.6331 16.5552 20.605 16.452L20.115 14.652C19.9868 14.1207 20.0631 13.5647 20.3228 13.0811C20.5826 12.5976 21.0094 12.2172 21.528 12.007L23.478 11.237C23.988 11.037 24.168 10.437 23.868 9.997L22.788 8.397C22.478 7.937 21.848 7.827 21.398 8.167L19.148 9.877C18.6657 10.2319 18.0645 10.3664 17.4812 10.2501C16.8979 10.1338 16.3813 9.77665 16.048 9.26001C14.658 7.09001 17.348 5.09001 17.348 5.09001C17.4026 5.00062 17.4277 4.89704 17.4206 4.79237C17.4135 4.68771 17.3745 4.58679 17.3086 4.50239C17.2427 4.41798 17.1528 4.354 17.0504 4.31859C16.948 4.28319 16.8377 4.27796 16.733 4.30351L14.733 4.78351C14.1378 4.93175 13.5133 4.80287 13.0305 4.43265C12.5478 4.06243 12.2571 3.48972 12.239 2.879L12.22 2ZM13 16C10.79 16 9 14.21 9 12C9 9.79 10.79 8 13 8C15.21 8 17 9.79 17 12C17 14.21 15.21 16 13 16Z" fill="currentColor"/>
</svg>
